<svg fill="none" version="1.1" id="Capa_1" xmlns="http://www.w3.org/2000/svg" xmlns:xlink="http://www.w3.org/1999/xlink" viewBox="0 0 159 236" xml:space="preserve">
<g id="SVGRepo_bgCarrier" stroke-width="0"></g>
<g id="SVGRepo_tracerCarrier" stroke-linecap="round" stroke-linejoin="round"></g>
<g id="SVGRepo_iconCarrier">
<path d="M41 150.5L28 172L29 185.5L37 191.5L45 190.5L48 215.5L42.5 220L43.5 226.5L48 231L54.5 233.5L64.5 234L74.5 231L78.5 227.5V222L80 215.5V208V203L82 227.5L88 232.5L99 233.5L108 232.5L113.5 230L117 224V220L114.5 216.5L113.5 213L115.5 200.5V191.5L114 185V177L112.5 170L112 164.5L114 173.5H120.5L128 170L134 162L135 156L127 157L117 156L112 153H109L100 155H97.5V157L102 169V178.5L96.5 186.5L81 191.5L65.5 188.5L59 184L56.5 177L57.5 169L59 162L61 156L41 150.5Z" fill="white"/>
<path d="M45 190.5L37 191.5L29 185.5L28 172L41 150.5L61 156L59 162L57.5 169L56.5 177L59 184L65.5 188.5L81 191.5L96.5 186.5L102 178.5V169L97.5 157V155H100L109 153H112L117 156L127 157L135 156L134 162L128 170L120.5 173.5H114L112 164.5L112.5 170L114 177V185L115.5 191.5V200.5L113.5 213L114.5 216.5L117 220V224L113.5 230L108 232.5L99 233.5L88 232.5L82 227.5L80 203V208V215.5L78.5 222V227.5L74.5 231L64.5 234L54.5 233.5L48 231L43.5 226.5L42.5 220L48 215.5L45 190.5ZM45 190.5L48 165" stroke="black"/>
<path d="M78.2099 191C55.2098 191 53.3226 178.837 61.2098 156L67.7098 157H81.7098H89.2098L96.2099 156C108.71 178 101.21 191 78.2099 191Z" fill="#03BF97" stroke="black" stroke-width="3"/>
<path d="M44.0133 190.661L44.9028 190.376C44.8842 193.387 45.0095 196.429 45.2863 199.634C40.2541 198.875 38.3106 196.862 36.127 190.95C38.3193 191.631 40.7209 191.422 44.0133 190.661Z" fill="white"/>
<path d="M137.127 44.1344C139.216 22.0877 137.127 6.13439 130.627 2.63439C124.127 -0.865605 112.659 10.6 103.627 25.1344L102.627 26.1344C94.1336 23.907 87.373 22.7679 80.627 22.6775C87.507 56.5076 103.052 65.7961 150.982 65.1344C147.703 57.974 143.069 50.9365 137.127 44.1344Z" fill="#F2C400"/>
<path d="M21.6269 44.1344C-12.8731 86.1344 -0.873135 134.634 49.6268 144.634C69.0295 148.725 80.7049 149.618 104.008 146.65L104.737 146.314L105.127 146.134C109 129.243 123.02 124.285 138.627 132.134L140.127 133.134C158.196 111.603 161.344 87.7551 150.982 65.1344C103.052 65.7961 87.507 56.5076 80.627 22.6775C73.2054 22.578 65.8014 23.7478 56.1269 26.1344C44.8915 8.2873 37.6269 1.63438 31.1269 2.63439C24.627 3.63439 18.611 16.7076 21.6269 43.1344V44.1344Z" fill="white"/>
<path d="M13.127 163.634C15.7791 164.379 24.0407 161.992 29.627 167.634L29.9789 167.981C30.281 167.337 30.6077 166.68 30.9586 166.009L34.127 159.634C34.127 159.634 29.627 155.134 27.627 153.634C25.627 152.134 19.0784 149.968 15.127 152.134C9.16065 156.095 10.4748 162.89 13.127 163.634Z" fill="white"/>
<path d="M138.627 132.134C123.02 124.285 109 129.243 105.127 146.134L104.737 146.314L105.229 147.772C106.441 149.385 107.934 150.77 109.627 151.936C125.576 162.925 159.208 154.47 141.627 134.634L141.376 134.383C141.261 134.271 141.147 134.16 141.127 134.134L140.127 133.134L138.627 132.134Z" fill="white"/>
<path d="M140.127 133.134L138.627 132.134C123.02 124.285 109 129.243 105.127 146.134L104.737 146.314M140.127 133.134C158.196 111.603 161.344 87.7551 150.982 65.1344M140.127 133.134L141.127 134.134C141.147 134.16 141.261 134.271 141.376 134.383M104.008 146.65C80.7049 149.618 69.0295 148.725 49.6268 144.634C-0.873135 134.634 -12.8731 86.1344 21.6269 44.1344V43.1344C18.611 16.7076 24.627 3.63439 31.1269 2.63439C37.6269 1.63438 44.8915 8.2873 56.1269 26.1344C65.8014 23.7478 73.2054 22.578 80.627 22.6775M104.008 146.65L104.127 146.634M104.008 146.65L104.737 146.314M80.627 22.6775C87.373 22.7679 94.1336 23.907 102.627 26.1344L103.627 25.1344C112.659 10.6 124.127 -0.865605 130.627 2.63439C137.127 6.13439 139.216 22.0877 137.127 44.1344C143.069 50.9365 147.703 57.974 150.982 65.1344M80.627 22.6775C87.507 56.5076 103.052 65.7961 150.982 65.1344M141.376 134.383C141.491 134.496 141.607 134.609 141.627 134.634M141.376 134.383L141.627 134.634M141.627 134.634C159.208 154.47 125.576 162.925 109.627 151.936C107.934 150.77 106.441 149.385 105.229 147.772M105.229 147.772C105.195 147.726 105.161 147.68 105.127 147.634M105.229 147.772L104.737 146.314M120.127 144.134C117.99 147.891 117.637 150.673 118.5 155.5M132.127 144.134C134.382 146.686 134.648 149.571 134 156M111.627 163.634C115.531 183.44 117.043 196.053 114 216.5M113 215C130.5 234 83.127 239.634 81.627 225.634C80.127 211.634 80.627 202.134 80.627 202.134C80.627 202.134 79.127 219.634 78.627 225.634C78.127 231.634 69.127 234.634 57.627 234.134C46.127 233.634 42.127 227.134 42.127 223.134C42.127 219.467 44.2285 217.481 47.2756 215.634M47.2756 215.634C47.5519 215.467 48.209 215.166 48.5 215M47.2756 215.634L47.127 213.134C46.2512 208.17 45.643 203.766 45.2863 199.634M44.0133 190.661L44.127 190.634M44.0133 190.661L44.9028 190.376M44.0133 190.661C40.7209 191.422 38.3193 191.631 36.127 190.95M48.127 163.634C46.079 174.149 44.9537 182.15 44.9028 190.376M44.9028 190.376C44.8842 193.387 45.0095 196.429 45.2863 199.634M45.627 144.134L44.127 146.134C38.3269 154.074 33.8336 160.513 30.9586 166.009M113.627 173.634C123.762 175.976 133.545 168.037 135 156M29.9789 167.981C26.3841 175.641 26.2821 181.456 30.627 187.134C32.5831 189.173 34.2808 190.377 36.127 190.95M29.9789 167.981L29.627 167.634C24.0407 161.992 15.7791 164.379 13.127 163.634C10.4748 162.89 9.16065 156.095 15.127 152.134C19.0784 149.968 25.627 152.134 27.627 153.634C29.627 155.134 34.127 159.634 34.127 159.634L30.9586 166.009M29.9789 167.981C30.281 167.337 30.6077 166.68 30.9586 166.009M29.9789 167.981L30.9586 166.009M36.127 190.95C38.3106 196.862 40.2541 198.875 45.2863 199.634" stroke="black" stroke-width="3"/>
<path d="M111.5 26.5C124 5.49999 133 9.49999 129 36L111.5 26.5Z" fill="#ED7A8D"/>
<path d="M28.5 37C26.5 8 33.5 6.5 46.5 27.5L28.5 37Z" fill="#ED7A8D"/>
<path d="M122 91.5H141.5M122 99L135 101.5M119.5 105L131.5 111.5M16.5 91.5H36.5M23 101L36.5 99M27 112.5L39.5 105M111.5 26.5C124 5.49999 133 9.49999 129 36L111.5 26.5ZM28.5 37C26.5 8 33.5 6.5 46.5 27.5L28.5 37Z" stroke="black" stroke-width="3"/>
<circle cx="45.5" cy="78.5" r="6.5" fill="black"/>
<circle cx="112.5" cy="78.5" r="6.5" fill="black"/>
<ellipse cx="79" cy="85.5" rx="6" ry="3.5" fill="black"/>
<path d="M64 91.5C68.5 101 79 103 79 96M79 96C79 89 79 89 79 89M79 96C81 102.5 88 101 94 92" stroke="black" stroke-width="3"/>
<path d="M42 150.997C50.864 154.94 55.4726 155.234 67 157.007H87.5C95.8387 156.032 100.622 155.344 110 153.007C106.778 150.859 105.215 149.516 103.5 146.507C81.2507 149.757 68.4955 148.616 45.5 144.007C44.643 143.84 44.7661 146.79 42 150.997Z" fill="#B61018" stroke="black" stroke-width="3"/>
<circle cx="78.5" cy="163.5" r="11" fill="#F2C400" stroke="black" stroke-width="3"/>
</g>
</svg>